<?xml version="1.0" encoding="UTF-8" standalone="no"?>
<!DOCTYPE svg PUBLIC "-//W3C//DTD SVG 1.1//EN"
 "http://www.w3.org/Graphics/SVG/1.1/DTD/svg11.dtd">
<!-- Generated by graphviz version 6.0.2 (20221126.1951)
 -->
<!-- Title: dag Pages: 1 -->
<svg width="329pt" height="260pt"
 viewBox="0.00 0.00 329.07 260.00" xmlns="http://www.w3.org/2000/svg" xmlns:xlink="http://www.w3.org/1999/xlink">
<g id="graph0" class="graph" transform="scale(1 1) rotate(0) translate(4 256)">
<title>dag</title>
<polygon fill="white" stroke="none" points="-4,4 -4,-256 325.07,-256 325.07,4 -4,4"/>
<!-- p5 -->
<g id="node1" class="node">
<title>p5</title>
<ellipse fill="none" stroke="black" cx="160.54" cy="-234" rx="131.88" ry="18"/>
<text text-anchor="middle" x="160.54" y="-230.3" font-family="Times,serif" font-size="14.00">INFILE_HANDLING_UNIX</text>
</g>
<!-- p11 -->
<g id="node2" class="node">
<title>p11</title>
<ellipse fill="none" stroke="black" cx="160.54" cy="-162" rx="160.57" ry="18"/>
<text text-anchor="middle" x="160.54" y="-158.3" font-family="Times,serif" font-size="14.00">GENERATE_PAIRS_BIOPYTHON</text>
</g>
<!-- p5&#45;&gt;p11 -->
<g id="edge1" class="edge">
<title>p5&#45;&gt;p11</title>
<path fill="none" stroke="black" d="M160.54,-215.7C160.54,-207.98 160.54,-198.71 160.54,-190.11"/>
<polygon fill="black" stroke="black" points="164.04,-190.1 160.54,-180.1 157.04,-190.1 164.04,-190.1"/>
</g>
<!-- p20 -->
<g id="node3" class="node">
<title>p20</title>
<ellipse fill="none" stroke="black" cx="160.54" cy="-90" rx="126.98" ry="18"/>
<text text-anchor="middle" x="160.54" y="-86.3" font-family="Times,serif" font-size="14.00">ANI_BLAST_BIOPYTHON</text>
</g>
<!-- p11&#45;&gt;p20 -->
<g id="edge2" class="edge">
<title>p11&#45;&gt;p20</title>
<path fill="none" stroke="black" d="M160.54,-143.7C160.54,-135.98 160.54,-126.71 160.54,-118.11"/>
<polygon fill="black" stroke="black" points="164.04,-118.1 160.54,-108.1 157.04,-118.1 164.04,-118.1"/>
</g>
<!-- p27 -->
<g id="node4" class="node">
<title>p27</title>
<ellipse fill="none" stroke="black" cx="160.54" cy="-18" rx="113.98" ry="18"/>
<text text-anchor="middle" x="160.54" y="-14.3" font-family="Times,serif" font-size="14.00">ANI_SUMMARY_UNIX</text>
</g>
<!-- p20&#45;&gt;p27 -->
<g id="edge3" class="edge">
<title>p20&#45;&gt;p27</title>
<path fill="none" stroke="black" d="M160.54,-71.7C160.54,-63.98 160.54,-54.71 160.54,-46.11"/>
<polygon fill="black" stroke="black" points="164.04,-46.1 160.54,-36.1 157.04,-46.1 164.04,-46.1"/>
</g>
</g>
</svg>
