<?xml version="1.0" encoding="UTF-8" standalone="no"?>
<!DOCTYPE svg PUBLIC "-//W3C//DTD SVG 1.1//EN"
 "http://www.w3.org/Graphics/SVG/1.1/DTD/svg11.dtd">
<!-- Generated by graphviz version 2.30.1 (20201013.1554)
 -->
<!-- Title: dag Pages: 1 -->
<svg width="703pt" height="849pt"
 viewBox="0.00 0.00 702.60 848.60" xmlns="http://www.w3.org/2000/svg" xmlns:xlink="http://www.w3.org/1999/xlink">
<g id="graph0" class="graph" transform="scale(1 1) rotate(0) translate(4 844.6)">
<title>dag</title>
<polygon fill="white" stroke="white" points="-4,5 -4,-844.6 699.6,-844.6 699.6,5 -4,5"/>
<!-- p0 -->
<g id="node1" class="node"><title>p0</title>
<ellipse fill="black" stroke="black" cx="239.6" cy="-822" rx="3.6" ry="3.6"/>
<text text-anchor="middle" x="171" y="-829.4" font-family="Times,serif" font-size="14.00">Channel.fromPath</text>
</g>
<!-- p5 -->
<g id="node2" class="node"><title>p5</title>
<ellipse fill="none" stroke="black" cx="282.6" cy="-748" rx="139.606" ry="18"/>
<text text-anchor="middle" x="282.6" y="-744.3" font-family="Times,serif" font-size="14.00">INFILE_HANDLING_UNIX</text>
</g>
<!-- p0&#45;&gt;p5 -->
<g id="edge1" class="edge"><title>p0&#45;&gt;p5</title>
<path fill="none" stroke="black" d="M238.918,-818.123C237.536,-811.642 234.992,-795.564 240.6,-784 242.51,-780.061 245.096,-776.405 248.051,-773.058"/>
<polygon fill="black" stroke="black" points="250.756,-775.308 255.474,-765.822 245.87,-770.296 250.756,-775.308"/>
<text text-anchor="middle" x="272.1" y="-788.3" font-family="Times,serif" font-size="14.00">input_ch</text>
</g>
<!-- p8 -->
<g id="node10" class="node"><title>p8</title>
<ellipse fill="black" stroke="black" cx="294.6" cy="-660" rx="1.8" ry="1.8"/>
</g>
<!-- p5&#45;&gt;p8 -->
<g id="edge6" class="edge"><title>p5&#45;&gt;p8</title>
<path fill="none" stroke="black" d="M285.028,-729.597C287.412,-712.516 290.977,-686.965 293.017,-672.348"/>
<polygon fill="black" stroke="black" points="296.532,-672.483 294.447,-662.095 289.599,-671.516 296.532,-672.483"/>
</g>
<!-- p11 -->
<g id="node11" class="node"><title>p11</title>
<ellipse fill="none" stroke="black" cx="527.6" cy="-660" rx="167.053" ry="18"/>
<text text-anchor="middle" x="527.6" y="-656.3" font-family="Times,serif" font-size="14.00">GENERATE_PAIRS_BIOPYTHON</text>
</g>
<!-- p5&#45;&gt;p11 -->
<g id="edge7" class="edge"><title>p5&#45;&gt;p11</title>
<path fill="none" stroke="black" d="M328.395,-730.925C368.826,-716.733 427.911,-695.993 471.235,-680.785"/>
<polygon fill="black" stroke="black" points="472.503,-684.05 480.779,-677.435 470.184,-677.445 472.503,-684.05"/>
</g>
<!-- p7 -->
<g id="node12" class="node"><title>p7</title>
<ellipse fill="black" stroke="black" cx="340.6" cy="-660" rx="1.8" ry="1.8"/>
</g>
<!-- p5&#45;&gt;p7 -->
<g id="edge8" class="edge"><title>p5&#45;&gt;p7</title>
<path fill="none" stroke="black" d="M294.301,-730.062C303.88,-716.14 317.734,-695.871 329.6,-678 331.18,-675.621 332.865,-673.039 334.429,-670.623"/>
<polygon fill="black" stroke="black" points="337.555,-672.233 340.011,-661.926 331.664,-668.452 337.555,-672.233"/>
</g>
<!-- p6 -->
<g id="node13" class="node"><title>p6</title>
<ellipse fill="black" stroke="black" cx="234.6" cy="-660" rx="1.8" ry="1.8"/>
</g>
<!-- p5&#45;&gt;p6 -->
<g id="edge9" class="edge"><title>p5&#45;&gt;p6</title>
<path fill="none" stroke="black" d="M265.006,-729.918C260.166,-724.532 255.251,-718.328 251.6,-712 244.254,-699.268 239.512,-682.898 236.951,-672.186"/>
<polygon fill="black" stroke="black" points="240.359,-671.387 234.841,-662.343 233.515,-672.854 240.359,-671.387"/>
</g>
<!-- p9 -->
<g id="node4" class="node"><title>p9</title>
<ellipse fill="none" stroke="black" cx="164.6" cy="-660" rx="3.25" ry="3.5"/>
<text text-anchor="middle" x="147.6" y="-667.3" font-family="Times,serif" font-size="14.00">mix</text>
</g>
<!-- p5&#45;&gt;p9 -->
<g id="edge10" class="edge"><title>p5&#45;&gt;p9</title>
<path fill="none" stroke="black" d="M259.568,-730.214C234.108,-711.658 194.196,-682.57 175.258,-668.768"/>
<polygon fill="black" stroke="black" points="177.101,-665.78 166.958,-662.718 172.978,-671.437 177.101,-665.78"/>
</g>
<!-- p19 -->
<g id="node22" class="node"><title>p19</title>
<ellipse fill="none" stroke="black" cx="321.6" cy="-434" rx="3.25" ry="3.5"/>
<text text-anchor="middle" x="287.6" y="-441.3" font-family="Times,serif" font-size="14.00">combine</text>
</g>
<!-- p5&#45;&gt;p19 -->
<g id="edge22" class="edge"><title>p5&#45;&gt;p19</title>
<path fill="none" stroke="black" d="M276.806,-729.762C271.544,-712.555 264.6,-685.254 264.6,-661 264.6,-661 264.6,-661 264.6,-493 264.6,-467.534 292.897,-449.161 309.616,-440.527"/>
<polygon fill="black" stroke="black" points="311.321,-443.592 318.851,-436.139 308.316,-437.27 311.321,-443.592"/>
</g>
<!-- p1 -->
<g id="node3" class="node"><title>p1</title>
<ellipse fill="black" stroke="black" cx="112.6" cy="-748" rx="3.6" ry="3.6"/>
<text text-anchor="middle" x="54.5" y="-755.4" font-family="Times,serif" font-size="14.00">Channel.empty</text>
</g>
<!-- p1&#45;&gt;p9 -->
<g id="edge2" class="edge"><title>p1&#45;&gt;p9</title>
<path fill="none" stroke="black" d="M111.889,-744.463C109.851,-736.656 104.69,-712.526 113.6,-696 121.865,-680.671 140.125,-670.718 152.4,-665.481"/>
<polygon fill="black" stroke="black" points="153.721,-668.723 161.813,-661.884 151.222,-662.184 153.721,-668.723"/>
<text text-anchor="middle" x="156.1" y="-700.3" font-family="Times,serif" font-size="14.00">ch_versions</text>
</g>
<!-- p15 -->
<g id="node14" class="node"><title>p15</title>
<ellipse fill="none" stroke="black" cx="164.6" cy="-586" rx="3.25" ry="3.5"/>
<text text-anchor="middle" x="147.6" y="-593.3" font-family="Times,serif" font-size="14.00">mix</text>
</g>
<!-- p9&#45;&gt;p15 -->
<g id="edge11" class="edge"><title>p9&#45;&gt;p15</title>
<path fill="none" stroke="black" d="M164.6,-656.265C164.6,-647.133 164.6,-617.282 164.6,-599.892"/>
<polygon fill="black" stroke="black" points="168.1,-599.737 164.6,-589.737 161.1,-599.737 168.1,-599.737"/>
<text text-anchor="middle" x="207.1" y="-612.3" font-family="Times,serif" font-size="14.00">ch_versions</text>
</g>
<!-- p2 -->
<g id="node5" class="node"><title>p2</title>
<ellipse fill="black" stroke="black" cx="317.6" cy="-660" rx="3.6" ry="3.6"/>
<text text-anchor="middle" x="259.5" y="-667.4" font-family="Times,serif" font-size="14.00">Channel.empty</text>
</g>
<!-- p16 -->
<g id="node6" class="node"><title>p16</title>
<ellipse fill="none" stroke="black" cx="321.6" cy="-586" rx="3.25" ry="3.5"/>
<text text-anchor="middle" x="304.6" y="-593.3" font-family="Times,serif" font-size="14.00">mix</text>
</g>
<!-- p2&#45;&gt;p16 -->
<g id="edge3" class="edge"><title>p2&#45;&gt;p16</title>
<path fill="none" stroke="black" d="M317.752,-656.265C318.259,-647.133 319.918,-617.282 320.884,-599.892"/>
<polygon fill="black" stroke="black" points="324.388,-599.916 321.448,-589.737 317.399,-599.528 324.388,-599.916"/>
<text text-anchor="middle" x="351.1" y="-612.3" font-family="Times,serif" font-size="14.00">pairs_ch</text>
</g>
<!-- p17 -->
<g id="node20" class="node"><title>p17</title>
<ellipse fill="none" stroke="black" cx="321.6" cy="-540" rx="3.25" ry="3.5"/>
<text text-anchor="middle" x="288.6" y="-547.3" font-family="Times,serif" font-size="14.00">splitCsv</text>
</g>
<!-- p16&#45;&gt;p17 -->
<g id="edge19" class="edge"><title>p16&#45;&gt;p17</title>
<path fill="none" stroke="black" d="M321.6,-582.379C321.6,-576.864 321.6,-563.742 321.6,-553.742"/>
<polygon fill="black" stroke="black" points="325.1,-553.552 321.6,-543.552 318.1,-553.552 325.1,-553.552"/>
</g>
<!-- p3 -->
<g id="node7" class="node"><title>p3</title>
<ellipse fill="black" stroke="black" cx="479.6" cy="-360" rx="3.6" ry="3.6"/>
<text text-anchor="middle" x="530.5" y="-367.4" font-family="Times,serif" font-size="14.00">Channel.empty</text>
</g>
<!-- p25 -->
<g id="node8" class="node"><title>p25</title>
<ellipse fill="none" stroke="black" cx="386.6" cy="-286" rx="3.25" ry="3.5"/>
<text text-anchor="middle" x="369.6" y="-293.3" font-family="Times,serif" font-size="14.00">mix</text>
</g>
<!-- p3&#45;&gt;p25 -->
<g id="edge4" class="edge"><title>p3&#45;&gt;p25</title>
<path fill="none" stroke="black" d="M477.973,-356.377C475.707,-352.851 471.339,-346.506 466.6,-342 444.765,-321.242 414.419,-302.657 398.093,-293.331"/>
<polygon fill="black" stroke="black" points="399.747,-290.246 389.307,-288.441 396.342,-296.363 399.747,-290.246"/>
<text text-anchor="middle" x="489.6" y="-312.3" font-family="Times,serif" font-size="14.00">ani_stats_ch</text>
</g>
<!-- p26 -->
<g id="node28" class="node"><title>p26</title>
<ellipse fill="none" stroke="black" cx="386.6" cy="-240" rx="3.25" ry="3.5"/>
<text text-anchor="middle" x="358.6" y="-247.3" font-family="Times,serif" font-size="14.00">collect</text>
</g>
<!-- p25&#45;&gt;p26 -->
<g id="edge30" class="edge"><title>p25&#45;&gt;p26</title>
<path fill="none" stroke="black" d="M386.6,-282.379C386.6,-276.864 386.6,-263.742 386.6,-253.742"/>
<polygon fill="black" stroke="black" points="390.1,-253.552 386.6,-243.552 383.1,-253.552 390.1,-253.552"/>
</g>
<!-- p4 -->
<g id="node9" class="node"><title>p4</title>
<ellipse fill="black" stroke="black" cx="325.6" cy="-822" rx="3.6" ry="3.6"/>
</g>
<!-- p4&#45;&gt;p5 -->
<g id="edge5" class="edge"><title>p4&#45;&gt;p5</title>
<path fill="none" stroke="black" d="M324.213,-818.66C320.746,-812.813 311.418,-797.089 303.6,-784 301.801,-780.989 299.913,-777.833 298.037,-774.702"/>
<polygon fill="black" stroke="black" points="301.012,-772.858 292.868,-766.082 295.009,-776.458 301.012,-772.858"/>
<text text-anchor="middle" x="357.1" y="-788.3" font-family="Times,serif" font-size="14.00">query_input</text>
</g>
<!-- p14 -->
<g id="node16" class="node"><title>p14</title>
<ellipse fill="black" stroke="black" cx="527.6" cy="-586" rx="1.8" ry="1.8"/>
</g>
<!-- p11&#45;&gt;p14 -->
<g id="edge13" class="edge"><title>p11&#45;&gt;p14</title>
<path fill="none" stroke="black" d="M527.6,-641.937C527.6,-628.37 527.6,-609.787 527.6,-598.089"/>
<polygon fill="black" stroke="black" points="531.1,-597.849 527.6,-587.849 524.1,-597.849 531.1,-597.849"/>
</g>
<!-- p11&#45;&gt;p16 -->
<g id="edge14" class="edge"><title>p11&#45;&gt;p16</title>
<path fill="none" stroke="black" d="M498.112,-642.234C477.514,-631.14 449.071,-617.025 422.6,-608 392.008,-597.57 354.355,-591.409 334.799,-588.682"/>
<polygon fill="black" stroke="black" points="335.188,-585.203 324.818,-587.375 334.279,-592.143 335.188,-585.203"/>
</g>
<!-- p13 -->
<g id="node17" class="node"><title>p13</title>
<ellipse fill="black" stroke="black" cx="552.6" cy="-586" rx="1.8" ry="1.8"/>
</g>
<!-- p11&#45;&gt;p13 -->
<g id="edge15" class="edge"><title>p11&#45;&gt;p13</title>
<path fill="none" stroke="black" d="M533.525,-641.937C538.34,-628.069 544.976,-608.958 549.017,-597.319"/>
<polygon fill="black" stroke="black" points="552.331,-598.444 552.305,-587.849 545.719,-596.148 552.331,-598.444"/>
</g>
<!-- p12 -->
<g id="node18" class="node"><title>p12</title>
<ellipse fill="black" stroke="black" cx="502.6" cy="-586" rx="1.8" ry="1.8"/>
</g>
<!-- p11&#45;&gt;p12 -->
<g id="edge16" class="edge"><title>p11&#45;&gt;p12</title>
<path fill="none" stroke="black" d="M521.675,-641.937C516.86,-628.069 510.224,-608.958 506.183,-597.319"/>
<polygon fill="black" stroke="black" points="509.481,-596.148 502.895,-587.849 502.869,-598.444 509.481,-596.148"/>
</g>
<!-- p11&#45;&gt;p15 -->
<g id="edge17" class="edge"><title>p11&#45;&gt;p15</title>
<path fill="none" stroke="black" d="M476.016,-642.789C458.905,-637.151 439.832,-630.584 422.6,-624 405.864,-617.606 402.953,-612.458 385.6,-608 308.807,-588.273 212.722,-586.69 177.94,-586.829"/>
<polygon fill="black" stroke="black" points="177.743,-583.331 167.779,-586.933 177.815,-590.331 177.743,-583.331"/>
</g>
<!-- p24 -->
<g id="node19" class="node"><title>p24</title>
<ellipse fill="none" stroke="black" cx="240.6" cy="-286" rx="3.25" ry="3.5"/>
<text text-anchor="middle" x="223.6" y="-293.3" font-family="Times,serif" font-size="14.00">mix</text>
</g>
<!-- p15&#45;&gt;p24 -->
<g id="edge18" class="edge"><title>p15&#45;&gt;p24</title>
<path fill="none" stroke="black" d="M164.386,-582.222C163.87,-575.278 162.6,-556.599 162.6,-541 162.6,-541 162.6,-541 162.6,-359 162.6,-323.696 206.279,-300.91 228.265,-291.677"/>
<polygon fill="black" stroke="black" points="229.595,-294.916 237.638,-288.019 227.049,-288.395 229.595,-294.916"/>
<text text-anchor="middle" x="205.1" y="-460.3" font-family="Times,serif" font-size="14.00">ch_versions</text>
</g>
<!-- p10 -->
<g id="node15" class="node"><title>p10</title>
<ellipse fill="black" stroke="black" cx="527.6" cy="-748" rx="3.6" ry="3.6"/>
</g>
<!-- p10&#45;&gt;p11 -->
<g id="edge12" class="edge"><title>p10&#45;&gt;p11</title>
<path fill="none" stroke="black" d="M527.6,-744.139C527.6,-735.502 527.6,-709.011 527.6,-688.227"/>
<polygon fill="black" stroke="black" points="531.1,-688.004 527.6,-678.004 524.1,-688.004 531.1,-688.004"/>
<text text-anchor="middle" x="571.1" y="-700.3" font-family="Times,serif" font-size="14.00">query_input</text>
</g>
<!-- p31 -->
<g id="node27" class="node"><title>p31</title>
<ellipse fill="none" stroke="black" cx="271.6" cy="-106" rx="3.25" ry="3.5"/>
<text text-anchor="middle" x="254.6" y="-113.3" font-family="Times,serif" font-size="14.00">mix</text>
</g>
<!-- p24&#45;&gt;p31 -->
<g id="edge29" class="edge"><title>p24&#45;&gt;p31</title>
<path fill="none" stroke="black" d="M240.82,-282.363C242.018,-268.38 248.119,-201.531 259.6,-148 261.707,-138.176 264.944,-127.268 267.526,-119.175"/>
<polygon fill="black" stroke="black" points="270.89,-120.15 270.709,-109.557 264.244,-117.951 270.89,-120.15"/>
<text text-anchor="middle" x="293.1" y="-206.3" font-family="Times,serif" font-size="14.00">ch_versions</text>
</g>
<!-- p18 -->
<g id="node21" class="node"><title>p18</title>
<ellipse fill="none" stroke="black" cx="321.6" cy="-494" rx="3.25" ry="3.5"/>
<text text-anchor="middle" x="302.6" y="-501.3" font-family="Times,serif" font-size="14.00">map</text>
</g>
<!-- p17&#45;&gt;p18 -->
<g id="edge20" class="edge"><title>p17&#45;&gt;p18</title>
<path fill="none" stroke="black" d="M321.6,-536.379C321.6,-530.864 321.6,-517.742 321.6,-507.742"/>
<polygon fill="black" stroke="black" points="325.1,-507.552 321.6,-497.552 318.1,-507.552 325.1,-507.552"/>
</g>
<!-- p18&#45;&gt;p19 -->
<g id="edge21" class="edge"><title>p18&#45;&gt;p19</title>
<path fill="none" stroke="black" d="M321.6,-490.203C321.6,-482.649 321.6,-461.48 321.6,-447.66"/>
<polygon fill="black" stroke="black" points="325.1,-447.636 321.6,-437.636 318.1,-447.636 325.1,-447.636"/>
</g>
<!-- p20 -->
<g id="node23" class="node"><title>p20</title>
<ellipse fill="none" stroke="black" cx="324.6" cy="-360" rx="133.333" ry="18"/>
<text text-anchor="middle" x="324.6" y="-356.3" font-family="Times,serif" font-size="14.00">ANI_BLAST_BIOPYTHON</text>
</g>
<!-- p19&#45;&gt;p20 -->
<g id="edge23" class="edge"><title>p19&#45;&gt;p20</title>
<path fill="none" stroke="black" d="M321.714,-430.265C322.002,-423.354 322.784,-404.578 323.462,-388.316"/>
<polygon fill="black" stroke="black" points="326.966,-388.28 323.886,-378.143 319.972,-387.988 326.966,-388.28"/>
<text text-anchor="middle" x="354.1" y="-400.3" font-family="Times,serif" font-size="14.00">pairs_ch</text>
</g>
<!-- p23 -->
<g id="node24" class="node"><title>p23</title>
<ellipse fill="black" stroke="black" cx="324.6" cy="-286" rx="1.8" ry="1.8"/>
</g>
<!-- p20&#45;&gt;p23 -->
<g id="edge24" class="edge"><title>p20&#45;&gt;p23</title>
<path fill="none" stroke="black" d="M324.6,-341.937C324.6,-328.37 324.6,-309.787 324.6,-298.089"/>
<polygon fill="black" stroke="black" points="328.1,-297.849 324.6,-287.849 321.1,-297.849 328.1,-297.849"/>
</g>
<!-- p20&#45;&gt;p25 -->
<g id="edge25" class="edge"><title>p20&#45;&gt;p25</title>
<path fill="none" stroke="black" d="M339.293,-341.937C351.379,-327.902 368.087,-308.499 378.072,-296.904"/>
<polygon fill="black" stroke="black" points="380.756,-299.15 384.629,-289.289 375.452,-294.583 380.756,-299.15"/>
</g>
<!-- p22 -->
<g id="node25" class="node"><title>p22</title>
<ellipse fill="black" stroke="black" cx="349.6" cy="-286" rx="1.8" ry="1.8"/>
</g>
<!-- p20&#45;&gt;p22 -->
<g id="edge26" class="edge"><title>p20&#45;&gt;p22</title>
<path fill="none" stroke="black" d="M330.525,-341.937C335.34,-328.069 341.976,-308.958 346.017,-297.319"/>
<polygon fill="black" stroke="black" points="349.331,-298.444 349.305,-287.849 342.719,-296.148 349.331,-298.444"/>
</g>
<!-- p21 -->
<g id="node26" class="node"><title>p21</title>
<ellipse fill="black" stroke="black" cx="299.6" cy="-286" rx="1.8" ry="1.8"/>
</g>
<!-- p20&#45;&gt;p21 -->
<g id="edge27" class="edge"><title>p20&#45;&gt;p21</title>
<path fill="none" stroke="black" d="M318.675,-341.937C313.86,-328.069 307.224,-308.958 303.183,-297.319"/>
<polygon fill="black" stroke="black" points="306.481,-296.148 299.895,-287.849 299.869,-298.444 306.481,-296.148"/>
</g>
<!-- p20&#45;&gt;p24 -->
<g id="edge28" class="edge"><title>p20&#45;&gt;p24</title>
<path fill="none" stroke="black" d="M304.693,-341.937C287.682,-327.356 263.912,-306.982 250.618,-295.587"/>
<polygon fill="black" stroke="black" points="252.65,-292.719 242.78,-288.868 248.094,-298.033 252.65,-292.719"/>
</g>
<!-- p32 -->
<g id="node33" class="node"><title>p32</title>
<ellipse fill="none" stroke="black" cx="271.6" cy="-46" rx="3.25" ry="3.5"/>
<text text-anchor="middle" x="230.1" y="-53.3" font-family="Times,serif" font-size="14.00">collectFile</text>
</g>
<!-- p31&#45;&gt;p32 -->
<g id="edge36" class="edge"><title>p31&#45;&gt;p32</title>
<path fill="none" stroke="black" d="M271.6,-102.203C271.6,-94.6489 271.6,-73.4797 271.6,-59.6598"/>
<polygon fill="black" stroke="black" points="275.1,-59.6357 271.6,-49.6357 268.1,-59.6357 275.1,-59.6357"/>
<text text-anchor="middle" x="314.1" y="-72.3" font-family="Times,serif" font-size="14.00">ch_versions</text>
</g>
<!-- p27 -->
<g id="node29" class="node"><title>p27</title>
<ellipse fill="none" stroke="black" cx="386.6" cy="-166" rx="117.935" ry="18"/>
<text text-anchor="middle" x="386.6" y="-162.3" font-family="Times,serif" font-size="14.00">ANI_SUMMARY_UNIX</text>
</g>
<!-- p26&#45;&gt;p27 -->
<g id="edge31" class="edge"><title>p26&#45;&gt;p27</title>
<path fill="none" stroke="black" d="M386.6,-236.265C386.6,-229.354 386.6,-210.578 386.6,-194.316"/>
<polygon fill="black" stroke="black" points="390.1,-194.143 386.6,-184.143 383.1,-194.143 390.1,-194.143"/>
<text text-anchor="middle" x="431.6" y="-206.3" font-family="Times,serif" font-size="14.00">ani_stats_ch</text>
</g>
<!-- p30 -->
<g id="node30" class="node"><title>p30</title>
<ellipse fill="black" stroke="black" cx="386.6" cy="-106" rx="1.8" ry="1.8"/>
</g>
<!-- p27&#45;&gt;p30 -->
<g id="edge32" class="edge"><title>p27&#45;&gt;p30</title>
<path fill="none" stroke="black" d="M386.6,-147.912C386.6,-138.322 386.6,-126.628 386.6,-118.202"/>
<polygon fill="black" stroke="black" points="390.1,-118.056 386.6,-108.056 383.1,-118.056 390.1,-118.056"/>
</g>
<!-- p29 -->
<g id="node31" class="node"><title>p29</title>
<ellipse fill="black" stroke="black" cx="411.6" cy="-106" rx="1.8" ry="1.8"/>
</g>
<!-- p27&#45;&gt;p29 -->
<g id="edge33" class="edge"><title>p27&#45;&gt;p29</title>
<path fill="none" stroke="black" d="M393.966,-147.912C398.251,-137.971 403.51,-125.769 407.164,-117.291"/>
<polygon fill="black" stroke="black" points="410.401,-118.625 411.145,-108.056 403.972,-115.854 410.401,-118.625"/>
</g>
<!-- p28 -->
<g id="node32" class="node"><title>p28</title>
<ellipse fill="black" stroke="black" cx="361.6" cy="-106" rx="1.8" ry="1.8"/>
</g>
<!-- p27&#45;&gt;p28 -->
<g id="edge34" class="edge"><title>p27&#45;&gt;p28</title>
<path fill="none" stroke="black" d="M379.234,-147.912C374.949,-137.971 369.69,-125.769 366.036,-117.291"/>
<polygon fill="black" stroke="black" points="369.228,-115.854 362.055,-108.056 362.799,-118.625 369.228,-115.854"/>
</g>
<!-- p27&#45;&gt;p31 -->
<g id="edge35" class="edge"><title>p27&#45;&gt;p31</title>
<path fill="none" stroke="black" d="M353.953,-148.535C330.442,-136.677 300.066,-121.357 283.563,-113.033"/>
<polygon fill="black" stroke="black" points="284.799,-109.737 274.294,-108.359 281.647,-115.987 284.799,-109.737"/>
</g>
<!-- p33 -->
<g id="node34" class="node"><title>p33</title>
<ellipse fill="black" stroke="black" cx="271.6" cy="-2" rx="1.8" ry="1.8"/>
</g>
<!-- p32&#45;&gt;p33 -->
<g id="edge37" class="edge"><title>p32&#45;&gt;p33</title>
<path fill="none" stroke="black" d="M271.6,-42.2443C271.6,-36.6872 271.6,-23.8593 271.6,-14.3745"/>
<polygon fill="black" stroke="black" points="275.1,-14.303 271.6,-4.30303 268.1,-14.3031 275.1,-14.303"/>
</g>
</g>
</svg>
